<svg width="623" height="220" viewBox="0 0 623 220" fill="none" xmlns="http://www.w3.org/2000/svg">
  <path fill-rule="evenodd" clip-rule="evenodd" d="M39.03 348.538a.326.326 0 01-.556-.174L.744 120.532c-3.476-20.987 16.078-38.45 36.54-32.633l133.699 38.007c7.301 2.075 15.099 1.153 21.891-2.237 29.797-14.871 62.968-25.877 98.626-31.782 36.24-6.002 71.939-6.22 105.712-1.569 7.534 1.038 15.23-.601 21.484-4.928L533.968 5.644c17.495-12.102 41.634-1.876 45.11 19.112l37.796 228.232a.12.12 0 01-.173.127.121.121 0 00-.171.141 168.396 168.396 0 014.127 18.421c19.901 120.169-93.581 239.051-253.468 265.529-159.887 26.479-305.634-49.473-325.535-169.642a172.993 172.993 0 01-2.064-18.814.328.328 0 00-.56-.212z" fill="currentColor"/>
</svg>
