<?xml version="1.0" encoding="UTF-8"?>
<svg xmlns="http://www.w3.org/2000/svg" width="229" height="89" viewBox="0 0 229 89" fill="none">
  <mask id="mask0_620_2306" style="mask-type:luminance" maskUnits="userSpaceOnUse" x="0" y="0" width="229" height="89">
    <path d="M229 0H0V89H229V0Z" fill="white"></path>
  </mask>
  <g mask="url(#mask0_620_2306)">
    <path d="M122.346 22.4028C123.674 20.3705 124.92 16.9171 124.954 13.498C125.05 6.04181 120.463 0 113.404 0C106.346 0 101.231 6.04181 101.135 13.5048C101.087 16.6356 101.56 19.1622 102.772 21.8054C91.5846 25.1696 84.2863 34.6168 82.8622 45.6706C82.8691 45.65 82.8759 45.65 82.8759 45.65C82.7527 46.6043 82.7184 47.1948 82.7184 47.1948C82.3967 50.1608 84.6217 52.8041 87.689 53.1267C90.7562 53.4288 93.1456 51.5476 93.8302 48.3139C94.5286 45.1007 96.9043 40.5694 101.32 39.1413C101.628 37.6789 101.615 33.4359 102.019 28.5682C104.607 28.5682 107.147 31.7401 107.147 31.7401C108.954 30.2983 111.152 29.4264 113.507 29.4264C115.862 29.4264 118.436 30.2983 120.394 31.7401C120.394 31.7401 121.791 28.5682 125.598 28.5682C126.679 38.8873 126.543 45.6637 116.198 45.6637H111.734C108.708 45.6637 106.695 48.1217 107.236 51.1494C107.783 54.1909 110.679 56.6557 113.705 56.6557H122.551C122.921 56.6557 123.338 56.6214 123.77 56.539C134.094 55.6396 138.654 48.9661 138.051 41.9425C137.415 34.4383 132.561 26.1789 122.332 22.4028" fill="white"></path>
    <path d="M111.083 82.1552C112.542 82.9448 115.609 83.8922 117.964 83.8922C120.319 83.8922 121.373 83.1439 121.373 81.9698C121.373 80.7958 120.586 80.2465 117.594 79.3677C112.288 77.7886 110.241 75.214 110.296 72.5638C110.296 68.2728 114.383 65.0459 120.744 65.0459C123.736 65.0459 126.727 65.6569 128.302 66.3572L126.878 71.2662C125.728 70.6826 123.516 69.9549 121.312 69.9549C119.367 69.9549 118.272 70.6483 118.272 71.8155C118.272 72.8797 119.258 73.4426 122.407 74.4244C127.289 75.9143 129.35 78.1113 129.398 81.4686C129.398 85.7048 126.234 88.8767 117.95 88.8767C114.582 88.8767 111.59 88.1764 109.646 87.2564L111.063 82.1621L111.083 82.1552Z" fill="white"></path>
    <path d="M163.904 72.8385C163.904 69.9824 163.801 67.5588 163.691 65.5609H170.627L171.003 68.6847H171.154C172.208 67.2361 174.831 65.0391 179.096 65.0391C184.34 65.0391 188.277 68.1218 188.277 74.8295V88.3618H180.301V75.7358C180.301 72.7836 179.151 70.7925 176.255 70.7925C174.05 70.7925 172.736 72.1451 172.208 73.4358C172.003 73.9095 171.9 74.5686 171.9 75.214V88.3687H163.91V72.8454L163.904 72.8385Z" fill="white"></path>
    <path d="M157.722 78.1247L157.708 66.2265C155.23 65.6223 151.533 65.1211 148.363 65.1211C135.163 65.1211 131.028 73.2913 132.739 80.9671C133.801 85.7113 137.785 88.8695 142.605 88.8695C145.741 88.8695 148.863 87.6062 150.547 83.8438H150.711C150.725 85.4436 150.725 87.0089 150.992 88.3615H158.427C157.66 85.5259 157.715 81.0495 157.715 78.1247M144.769 83.4662C142.543 83.4662 141.133 81.942 140.626 79.7107C139.661 75.4814 142.146 69.982 147.322 69.982C148.089 69.982 148.917 70.0919 149.568 70.188L149.595 75.6119C149.623 81.1937 147.158 83.4662 144.769 83.4662Z" fill="white"></path>
    <path d="M218.724 79.5045V55.2617H210.7V65.5603C209.433 65.1895 207.961 65.0385 206.852 65.0385C196.528 65.0385 191.318 72.3298 193.111 80.2391C194.371 85.8003 198.924 88.8624 203.552 88.8624C206.743 88.8624 209.83 87.6953 211.535 84.6675H211.652L212.09 88.3612H219.463C218.957 85.6493 218.717 82.4018 218.731 79.5045M210.748 77.0672C210.672 81.4063 208.297 83.4523 206.01 83.4523C203.723 83.4523 201.868 81.9143 201.245 79.1681C200.245 74.7878 202.587 70.1259 207.4 70.1259C208.728 70.1259 210.036 70.5104 210.748 70.9155V77.0672Z" fill="white"></path>
    <path d="M14.2338 72.8381C14.2338 69.9888 14.1242 67.5584 14.0215 65.5605H20.957L21.3198 68.6844H21.4773C22.5317 67.2357 25.1607 65.0387 29.4123 65.0387C34.6636 65.0387 38.6071 68.1214 38.6071 74.8292V88.3614H30.6242V75.7354C30.6242 72.7763 29.4603 70.7853 26.5711 70.7853C24.3665 70.7853 23.052 72.1378 22.5317 73.4286C22.3331 73.9023 22.2167 74.5614 22.2167 75.2068V88.3546H14.2338V72.8313V72.8381ZM53.6419 59.3676V65.5605H59.3587V70.7853H53.6419V79.0378C53.6419 81.7841 54.3745 83.0405 56.7913 83.0405C57.8867 83.0405 58.3728 82.9993 59.1533 82.8483L59.2149 88.2241C58.1674 88.5812 56.271 88.8695 54.0048 88.8695C51.4374 88.8695 49.2876 88.0319 48.021 86.8716C46.5558 85.5191 45.8164 83.322 45.8164 80.102V70.7853H42.4069V65.5605H45.8164V61.2626L53.6488 59.3676H53.6419ZM91.1605 73.0647C91.1605 69.7211 91.0646 67.5172 90.9551 65.5605H97.8426L98.1028 69.7554H98.3081C99.6295 66.4462 102.779 65.0318 105.244 65.0318C105.976 65.0318 106.346 65.0318 106.928 65.1279V71.8495C106.346 71.7053 105.668 71.6023 104.778 71.6023C101.834 71.6023 99.8418 73.0235 99.3077 75.1999C99.1982 75.6736 99.1503 76.2298 99.1503 76.7928V88.3546H91.1605V73.0647ZM0.0205393 57.8022L0 84.3725C0 86.5695 1.76638 88.3546 3.94355 88.3546H7.82549V57.8022H0.0205393ZM85.7723 87.1737C82.8009 88.5194 78.8916 89 75.8587 89C68.0126 89 63.3639 85.2376 62.4054 79.2781C61.2894 72.282 66.1778 65.0387 76.112 65.0387C81.6576 65.0387 86.0599 67.6133 86.7377 71.8769C87.6825 77.7402 81.2331 79.8411 70.2035 79.6214C70.3062 80.2737 70.7512 81.2829 71.4221 81.942C72.675 83.1298 74.6194 83.734 76.9815 83.734C79.9528 83.734 82.3833 83.1641 84.4236 82.2853L85.7723 87.1737ZM79.1655 71.8769C78.9875 70.7441 77.7346 69.9614 75.886 69.9614C72.1273 69.9614 70.4089 72.5292 70.1966 74.6919C76.4817 74.733 79.5146 73.9778 79.1792 71.9318L79.1655 71.8769Z" fill="white"></path>
    <path d="M225.064 80.981C225.735 80.981 226.392 81.1457 227.008 81.4822C227.631 81.8186 228.117 82.306 228.473 82.9377C228.829 83.5693 229.007 84.2353 229.007 84.9287C229.007 85.6222 228.836 86.2675 228.48 86.8923C228.138 87.5171 227.652 88.0046 227.029 88.3547C226.406 88.7049 225.755 88.8765 225.07 88.8765C224.386 88.8765 223.729 88.7049 223.106 88.3547C222.483 88.0046 221.996 87.5171 221.654 86.8923C221.305 86.2675 221.127 85.6153 221.127 84.9287C221.127 84.2422 221.305 83.5762 221.661 82.9377C222.017 82.306 222.503 81.8186 223.126 81.4822C223.749 81.1457 224.393 80.981 225.07 80.981M225.064 81.7499C224.523 81.7499 224.002 81.8804 223.51 82.155C223.017 82.4296 222.619 82.821 222.332 83.329C222.044 83.8371 221.907 84.3726 221.907 84.9287C221.907 85.4849 222.051 86.0066 222.325 86.5078C222.606 87.0159 222.989 87.4004 223.496 87.6887C223.996 87.9702 224.523 88.1144 225.07 88.1144C225.618 88.1144 226.145 87.9702 226.645 87.6887C227.145 87.4072 227.535 87.0159 227.816 86.5078C228.097 86.0066 228.234 85.478 228.234 84.9287C228.234 84.3795 228.097 83.8371 227.802 83.329C227.515 82.821 227.124 82.4296 226.625 82.155C226.125 81.8872 225.605 81.7499 225.064 81.7499ZM223.284 87.0365V82.8484H224.133C224.934 82.8484 225.372 82.8484 225.468 82.8553C225.748 82.8828 225.967 82.9377 226.125 83.0269C226.275 83.1162 226.412 83.2466 226.515 83.4251C226.625 83.6037 226.673 83.8096 226.673 84.0293C226.673 84.3314 226.577 84.5923 226.378 84.8051C226.18 85.0249 225.899 85.1484 225.55 85.2034C225.673 85.2514 225.769 85.2995 225.844 85.3613C225.913 85.4162 226.008 85.5261 226.125 85.684C226.159 85.7252 226.262 85.8968 226.433 86.192L226.926 87.0365H225.878L225.529 86.3499C225.29 85.8968 225.098 85.6084 224.94 85.4849C224.79 85.3681 224.591 85.3063 224.352 85.3063H224.133V87.0296H223.284V87.0365ZM224.133 84.6541H224.475C224.961 84.6541 225.269 84.6335 225.385 84.5992C225.502 84.558 225.598 84.4962 225.666 84.4001C225.735 84.304 225.769 84.201 225.769 84.0843C225.769 83.9675 225.735 83.8646 225.666 83.7684C225.598 83.6792 225.509 83.6105 225.385 83.5693C225.262 83.5281 224.954 83.5075 224.475 83.5075H224.133V84.6541Z" fill="white"></path>
  </g>
</svg>
